# This file uses centimeters as units for non-parametric coordinates.

v -5.145628 -0.005554 3.208159
v -4.106397 -0.005554 1.868113
v -3.181818 -0.005554 1.500000
v -1.944444 -0.005554 1.500000
v -1.741045 -0.005554 1.586443
v -0.580348 -0.005554 1.586443
v 0.580349 -0.005554 1.586443
v 1.741046 -0.005554 1.586443
v 1.944445 -0.005554 1.500000
v 3.181819 -0.005554 1.500000
v 4.106398 -0.005554 1.868113
v 5.145628 -0.005554 3.208159
v -5.145628 0.149502 3.208159
v -4.106397 0.149502 1.868113
v -3.181818 0.149502 1.500000
v -1.944444 0.149502 1.500000
v -1.741045 0.149502 1.586443
v -0.580348 0.149502 1.586443
v 0.580349 0.149502 1.586443
v 1.741046 0.149502 1.586443
v 1.944445 0.149502 1.500000
v 3.181819 0.149502 1.500000
v 4.106398 0.149502 1.868113
v 5.145628 0.149502 3.208159
v -5.000000 0.149502 0.500000
v -4.090909 0.149502 0.500000
v -3.181818 0.149502 0.500000
v -2.272727 0.149502 0.500000
v -1.363636 0.149502 0.500000
v -0.454545 0.149502 0.500000
v 0.454546 0.149502 0.500000
v 1.363637 0.149502 0.500000
v 2.272728 0.149502 0.500000
v 3.181819 0.149502 0.500000
v 4.090909 0.149502 0.500000
v 5.000000 0.149502 0.500000
v -5.000000 0.149502 -0.500000
v -4.090909 0.149502 -0.500000
v -3.181818 0.149502 -0.500000
v -2.272727 0.149502 -0.500000
v -1.363636 0.149502 -0.500000
v -0.454545 0.149502 -0.500000
v 0.454546 0.149502 -0.500000
v 1.363637 0.149502 -0.500000
v 2.272728 0.149502 -0.500000
v 3.181819 0.149502 -0.500000
v 4.090909 0.149502 -0.500000
v 5.000000 0.149502 -0.500000
v -5.000000 0.149502 -1.500000
v -4.090909 0.149502 -1.500000
v -3.181818 0.149502 -1.500000
v -2.272727 0.149502 -1.500000
v -1.363636 0.149502 -1.500000
v -0.454545 0.149502 -1.500000
v 0.454546 0.149502 -1.500000
v 1.363637 0.149502 -1.500000
v 2.272728 0.149502 -1.500000
v 3.181819 0.149502 -1.500000
v 4.090909 0.149502 -1.500000
v 5.000000 0.149502 -1.500000
v -5.000000 -0.005554 -1.500000
v -4.090909 -0.005554 -1.500000
v -3.181818 -0.005554 -1.500000
v -2.272727 -0.005554 -1.500000
v -1.363636 -0.005554 -1.500000
v -0.454545 -0.005554 -1.500000
v 0.454546 -0.005554 -1.500000
v 1.363637 -0.005554 -1.500000
v 2.272728 -0.005554 -1.500000
v 3.181819 -0.005554 -1.500000
v 4.090909 -0.005554 -1.500000
v 5.000000 -0.005554 -1.500000
v -5.000000 -0.005554 -0.500000
v -4.090909 -0.005554 -0.500000
v -3.181818 -0.005554 -0.500000
v -2.272727 -0.005554 -0.500000
v -1.363636 -0.005554 -0.500000
v -0.454545 -0.005554 -0.500000
v 0.454546 -0.005554 -0.500000
v 1.363637 -0.005554 -0.500000
v 2.272728 -0.005554 -0.500000
v 3.181819 -0.005554 -0.500000
v 4.090909 -0.005554 -0.500000
v 5.000000 -0.005554 -0.500000
v -5.000000 -0.005554 0.500000
v -4.090909 -0.005554 0.500000
v -3.181818 -0.005554 0.500000
v -2.272727 -0.005554 0.500000
v -1.363636 -0.005554 0.500000
v -0.454545 -0.005554 0.500000
v 0.454546 -0.005554 0.500000
v 1.363637 -0.005554 0.500000
v 2.272728 -0.005554 0.500000
v 3.181819 -0.005554 0.500000
v 4.090909 -0.005554 0.500000
v 5.000000 -0.005554 0.500000
v -1.640541 -0.005554 1.771625
v -0.546846 -0.005554 1.771625
v -0.546846 0.149502 1.771625
v -1.640541 0.149502 1.771625
v 0.546847 -0.005554 1.771625
v 0.546847 0.149502 1.771625
v 1.640541 -0.005554 1.771625
v 1.640541 0.149502 1.771625
v -1.444389 -0.005554 3.519254
v -0.481463 -0.005554 3.519254
v -0.481463 0.149502 3.519254
v -1.444389 0.149502 3.519254
v 0.481463 -0.005554 3.519254
v 0.481463 0.149502 3.519254
v 1.444390 -0.005554 3.519254
v 1.444390 0.149502 3.519254
v -1.330982 -0.005554 3.681109
v 1.330983 -0.005554 3.681109
v 1.330983 0.149502 3.681109
v -1.330983 0.149502 3.681109
v -1.115785 -0.005554 3.745468
v 1.115786 -0.005554 3.745468
v 1.115786 0.149502 3.745468
v -1.115785 0.149502 3.745468
v 5.858769 -0.005554 -1.500000
v 5.858769 -0.005554 -0.500000
v 5.858769 0.149502 -1.500000
v 5.858769 0.149502 -0.500000
v 5.858744 -0.005554 0.504656
v 5.858744 0.149502 0.504656
v 5.843230 -0.005554 5.305670
v 5.843230 0.149502 5.305670
v -5.858768 -0.005554 -1.500000
v -5.858768 -0.005554 -0.500000
v -5.858768 0.149502 -0.500000
v -5.858768 0.149502 -1.500000
v -5.858743 -0.005554 0.504656
v -5.858743 0.149502 0.504656
v -5.843230 -0.005554 5.305670
v -5.843230 0.149502 5.305670
v 6.937394 -0.005554 -1.500000
v 6.937394 -0.005554 -0.499986
v 6.937394 0.149502 -1.500000
v 6.937394 0.149502 -0.499986
v 6.937363 -0.005554 0.506964
v 6.937363 0.149502 0.506964
v 6.921844 -0.005554 5.310260
v 6.921844 0.149502 5.310260
v -6.937393 -0.005554 -1.500000
v -6.937393 -0.005554 -0.499986
v -6.937393 0.149502 -0.499986
v -6.937393 0.149502 -1.500000
v -6.937362 -0.005554 0.506964
v -6.937362 0.149502 0.506964
v -6.921844 -0.005554 5.310260
v -6.921844 0.149502 5.310260
vt 0.375000 0.000000
vt 0.397727 0.000000
vt 0.420455 0.000000
vt 0.443182 0.000000
vt 0.465909 0.000000
vt 0.488636 0.000000
vt 0.511364 0.000000
vt 0.534091 0.000000
vt 0.556818 0.000000
vt 0.579545 0.000000
vt 0.602273 0.000000
vt 0.625000 0.000000
vt 0.375000 0.250000
vt 0.397727 0.250000
vt 0.420455 0.250000
vt 0.443182 0.250000
vt 0.465909 0.250000
vt 0.488636 0.250000
vt 0.511364 0.250000
vt 0.534091 0.250000
vt 0.556818 0.250000
vt 0.579545 0.250000
vt 0.602273 0.250000
vt 0.625000 0.250000
vt 0.375000 0.333333
vt 0.397727 0.333333
vt 0.420455 0.333333
vt 0.443182 0.333333
vt 0.465909 0.333333
vt 0.488636 0.333333
vt 0.511364 0.333333
vt 0.534091 0.333333
vt 0.556818 0.333333
vt 0.579545 0.333333
vt 0.602273 0.333333
vt 0.625000 0.333333
vt 0.375000 0.416667
vt 0.397727 0.416667
vt 0.420455 0.416667
vt 0.443182 0.416667
vt 0.465909 0.416667
vt 0.488636 0.416667
vt 0.511364 0.416667
vt 0.534091 0.416667
vt 0.556818 0.416667
vt 0.579545 0.416667
vt 0.602273 0.416667
vt 0.625000 0.416667
vt 0.375000 0.500000
vt 0.397727 0.500000
vt 0.420455 0.500000
vt 0.443182 0.500000
vt 0.465909 0.500000
vt 0.488636 0.500000
vt 0.511364 0.500000
vt 0.534091 0.500000
vt 0.556818 0.500000
vt 0.579545 0.500000
vt 0.602273 0.500000
vt 0.625000 0.500000
vt 0.375000 0.750000
vt 0.397727 0.750000
vt 0.420455 0.750000
vt 0.443182 0.750000
vt 0.465909 0.750000
vt 0.488636 0.750000
vt 0.511364 0.750000
vt 0.534091 0.750000
vt 0.556818 0.750000
vt 0.579545 0.750000
vt 0.602273 0.750000
vt 0.625000 0.750000
vt 0.375000 0.833333
vt 0.397727 0.833333
vt 0.420455 0.833333
vt 0.443182 0.833333
vt 0.465909 0.833333
vt 0.488636 0.833333
vt 0.511364 0.833333
vt 0.534091 0.833333
vt 0.556818 0.833333
vt 0.579545 0.833333
vt 0.602273 0.833333
vt 0.625000 0.833333
vt 0.375000 0.916667
vt 0.397727 0.916667
vt 0.420455 0.916667
vt 0.443182 0.916667
vt 0.465909 0.916667
vt 0.488636 0.916667
vt 0.511364 0.916667
vt 0.534091 0.916667
vt 0.556818 0.916667
vt 0.579545 0.916667
vt 0.602273 0.916667
vt 0.625000 0.916667
vt 0.375000 1.000000
vt 0.397727 1.000000
vt 0.420455 1.000000
vt 0.443182 1.000000
vt 0.465909 1.000000
vt 0.488636 1.000000
vt 0.511364 1.000000
vt 0.534091 1.000000
vt 0.556818 1.000000
vt 0.579545 1.000000
vt 0.602273 1.000000
vt 0.625000 1.000000
vt 0.875000 0.000000
vt 0.791667 0.000000
vt 0.708333 0.000000
vt 0.875000 0.250000
vt 0.791667 0.250000
vt 0.708333 0.250000
vt 0.125000 0.000000
vt 0.208333 0.000000
vt 0.291667 0.000000
vt 0.125000 0.250000
vt 0.208333 0.250000
vt 0.291667 0.250000
vt 0.465909 0.000000
vt 0.488636 0.000000
vt 0.488636 0.250000
vt 0.465909 0.250000
vt 0.511364 0.000000
vt 0.511364 0.250000
vt 0.534091 0.000000
vt 0.534091 0.250000
vt 0.465909 0.000000
vt 0.488636 0.000000
vt 0.488636 0.250000
vt 0.465909 0.250000
vt 0.511364 0.000000
vt 0.511364 0.250000
vt 0.534091 0.000000
vt 0.534091 0.250000
vt 0.488636 0.000000
vt 0.511364 0.000000
vt 0.511364 0.250000
vt 0.488636 0.250000
vt 0.488636 0.000000
vt 0.511364 0.000000
vt 0.511364 0.250000
vt 0.488636 0.250000
vt 0.791667 0.000000
vt 0.875000 0.000000
vt 0.875000 0.250000
vt 0.791667 0.250000
vt 0.708333 0.000000
vt 0.708333 0.250000
vt 0.625000 0.000000
vt 0.625000 0.250000
vt 0.125000 0.000000
vt 0.208333 0.000000
vt 0.208333 0.250000
vt 0.125000 0.250000
vt 0.291667 0.000000
vt 0.291667 0.250000
vt 0.375000 0.000000
vt 0.375000 0.250000
vt 0.791667 0.000000
vt 0.875000 0.000000
vt 0.875000 0.250000
vt 0.791667 0.250000
vt 0.708333 0.000000
vt 0.708333 0.250000
vt 0.625000 0.000000
vt 0.625000 0.250000
vt 0.125000 0.000000
vt 0.208333 0.000000
vt 0.208333 0.250000
vt 0.125000 0.250000
vt 0.291667 0.000000
vt 0.291667 0.250000
vt 0.375000 0.000000
vt 0.375000 0.250000
vn 0.892544 0.000000 0.450960
vn 0.656288 0.000000 0.754511
vn 0.656288 0.000000 0.754511
vn 0.892544 0.000000 0.450960
vn 0.167853 0.000000 0.985812
vn 0.167853 0.000000 0.985812
vn -0.059890 0.000000 0.998205
vn -0.059890 0.000000 0.998205
vn -0.391136 0.000000 0.920333
vn -0.391136 0.000000 0.920333
vn 0.000000 0.000000 1.000000
vn 0.000000 0.000000 1.000000
vn 0.000000 0.000000 1.000000
vn 0.000000 0.000000 1.000000
vn 0.391136 0.000000 0.920333
vn 0.059890 0.000000 0.998205
vn 0.059890 0.000000 0.998205
vn 0.391136 0.000000 0.920333
vn -0.167853 0.000000 0.985812
vn -0.167853 0.000000 0.985812
vn -0.656288 0.000000 0.754511
vn -0.656288 0.000000 0.754511
vn -0.892544 0.000000 0.450960
vn -0.892544 0.000000 0.450960
vn 0.000000 1.000000 -0.000000
vn 0.000000 1.000000 -0.000000
vn 0.000000 1.000000 -0.000000
vn 0.000000 1.000000 -0.000000
vn 0.000000 1.000000 -0.000000
vn 0.000000 1.000000 -0.000000
vn 0.000000 1.000000 -0.000000
vn 0.000000 1.000000 -0.000000
vn 0.000000 1.000000 -0.000000
vn 0.000000 1.000000 -0.000000
vn 0.000000 1.000000 -0.000000
vn 0.000000 1.000000 -0.000000
vn 0.000000 1.000000 -0.000000
vn 0.000000 1.000000 0.000000
vn 0.000000 1.000000 -0.000000
vn 0.000000 1.000000 -0.000000
vn 0.000000 1.000000 -0.000000
vn 0.000000 1.000000 -0.000000
vn 0.000000 1.000000 -0.000000
vn 0.000000 1.000000 -0.000000
vn 0.000000 1.000000 -0.000000
vn 0.000000 1.000000 -0.000000
vn 0.000000 1.000000 -0.000000
vn 0.000000 1.000000 -0.000000
vn 0.000000 1.000000 0.000000
vn 0.000000 1.000000 0.000000
vn 0.000000 1.000000 0.000000
vn 0.000000 1.000000 0.000000
vn 0.000000 1.000000 0.000000
vn 0.000000 1.000000 0.000000
vn 0.000000 1.000000 0.000000
vn 0.000000 1.000000 0.000000
vn 0.000000 1.000000 0.000000
vn 0.000000 1.000000 0.000000
vn 0.000000 1.000000 0.000000
vn 0.000000 1.000000 0.000000
vn 0.000000 1.000000 0.000000
vn 0.000000 1.000000 0.000000
vn 0.000000 1.000000 0.000000
vn 0.000000 1.000000 0.000000
vn 0.000000 1.000000 0.000000
vn 0.000000 1.000000 0.000000
vn 0.000000 1.000000 0.000000
vn 0.000000 1.000000 0.000000
vn 0.000000 1.000000 0.000000
vn 0.000000 1.000000 0.000000
vn 0.000000 1.000000 0.000000
vn 0.000000 1.000000 0.000000
vn 0.000000 0.000000 -1.000000
vn 0.000000 0.000000 -1.000000
vn 0.000000 0.000000 -1.000000
vn 0.000000 0.000000 -1.000000
vn 0.000000 0.000000 -1.000000
vn 0.000000 0.000000 -1.000000
vn 0.000000 0.000000 -1.000000
vn 0.000000 0.000000 -1.000000
vn 0.000000 0.000000 -1.000000
vn 0.000000 0.000000 -1.000000
vn 0.000000 0.000000 -1.000000
vn 0.000000 0.000000 -1.000000
vn 0.000000 0.000000 -1.000000
vn 0.000000 0.000000 -1.000000
vn 0.000000 0.000000 -1.000000
vn 0.000000 0.000000 -1.000000
vn 0.000000 0.000000 -1.000000
vn 0.000000 0.000000 -1.000000
vn 0.000000 0.000000 -1.000000
vn 0.000000 0.000000 -1.000000
vn 0.000000 0.000000 -1.000000
vn 0.000000 0.000000 -1.000000
vn 0.000000 0.000000 -1.000000
vn 0.000000 0.000000 -1.000000
vn 0.000000 -1.000000 0.000000
vn 0.000000 -1.000000 0.000000
vn 0.000000 -1.000000 0.000000
vn 0.000000 -1.000000 -0.000000
vn 0.000000 -1.000000 0.000000
vn 0.000000 -1.000000 0.000000
vn 0.000000 -1.000000 0.000000
vn 0.000000 -1.000000 0.000000
vn 0.000000 -1.000000 0.000000
vn 0.000000 -1.000000 0.000000
vn 0.000000 -1.000000 0.000000
vn 0.000000 -1.000000 0.000000
vn 0.000000 -1.000000 0.000000
vn 0.000000 -1.000000 0.000000
vn 0.000000 -1.000000 0.000000
vn 0.000000 -1.000000 0.000000
vn 0.000000 -1.000000 0.000000
vn 0.000000 -1.000000 0.000000
vn 0.000000 -1.000000 0.000000
vn 0.000000 -1.000000 0.000000
vn 0.000000 -1.000000 0.000000
vn 0.000000 -1.000000 0.000000
vn 0.000000 -1.000000 0.000000
vn 0.000000 -1.000000 0.000000
vn 0.000000 -1.000000 0.000000
vn 0.000000 -1.000000 -0.000000
vn 0.000000 -1.000000 -0.000000
vn 0.000000 -1.000000 -0.000000
vn 0.000000 -1.000000 0.000000
vn 0.000000 -1.000000 0.000000
vn 0.000000 -1.000000 0.000000
vn 0.000000 -1.000000 -0.000000
vn 0.000000 -1.000000 -0.000000
vn 0.000000 -1.000000 -0.000000
vn 0.000000 -1.000000 0.000000
vn 0.000000 -1.000000 -0.000000
vn 0.000000 -1.000000 0.000000
vn 0.000000 -1.000000 0.000000
vn 0.000000 -1.000000 -0.000000
vn 0.000000 -1.000000 -0.000000
vn 0.000000 -1.000000 0.000000
vn 0.000000 -1.000000 0.000000
vn 0.000000 -1.000000 -0.000000
vn 0.000000 -1.000000 -0.000000
vn 0.000000 -1.000000 -0.000000
vn 0.000000 -1.000000 -0.000000
vn 0.000000 -1.000000 0.000000
vn 0.000000 -1.000000 -0.000000
vn 1.000000 0.000000 0.000015
vn 1.000000 0.000000 0.000000
vn 1.000000 0.000000 0.000000
vn 1.000000 0.000000 0.000015
vn 0.999996 0.000000 0.002676
vn 0.999996 0.000000 0.002676
vn 0.999995 0.000000 0.003231
vn 0.999995 0.000000 0.003231
vn -1.000000 0.000000 0.000000
vn -1.000000 0.000000 0.000015
vn -1.000000 0.000000 0.000015
vn -1.000000 0.000000 0.000000
vn -0.999996 0.000000 0.002676
vn -0.999996 0.000000 0.002676
vn -0.999995 0.000000 0.003231
vn -0.999995 0.000000 0.003231
vn 0.000000 -1.000000 -0.000000
vn 0.000000 -1.000000 -0.000000
vn 0.000000 -1.000000 -0.000000
vn 0.000000 -1.000000 -0.000000
vn 0.000000 1.000000 -0.000000
vn 0.000000 1.000000 -0.000000
vn 0.000000 1.000000 -0.000000
vn 0.000000 1.000000 -0.000000
vn -0.878899 0.000000 0.477008
vn -0.878899 0.000000 0.477008
vn -0.878899 0.000000 0.477008
vn -0.878899 0.000000 0.477008
vn 0.000000 -1.000000 -0.000000
vn 0.000000 -1.000000 -0.000000
vn 0.000000 -1.000000 -0.000000
vn 0.000000 1.000000 0.000000
vn 0.000000 1.000000 0.000000
vn 0.000000 1.000000 0.000000
vn 0.000000 -1.000000 0.000000
vn 0.000000 -1.000000 0.000000
vn 0.000000 -1.000000 0.000000
vn 0.878899 0.000000 0.477008
vn 0.878899 0.000000 0.477008
vn 0.878899 0.000000 0.477008
vn 0.878899 0.000000 0.477008
vn 0.000000 1.000000 0.000000
vn 0.000000 1.000000 0.000000
vn 0.000000 1.000000 0.000000
vn 0.000000 -1.000000 -0.000000
vn 0.000000 -1.000000 -0.000000
vn 0.000000 1.000000 -0.000000
vn 0.000000 1.000000 -0.000000
vn -0.993760 0.000000 0.111538
vn -0.993760 0.000000 0.111538
vn -0.993760 0.000000 0.111538
vn -0.993760 0.000000 0.111538
vn 0.000000 -1.000000 -0.000000
vn 0.000000 1.000000 -0.000000
vn 0.000000 -1.000000 -0.000000
vn 0.993760 0.000000 0.111538
vn 0.993760 0.000000 0.111538
vn 0.993760 0.000000 0.111538
vn 0.993760 0.000000 0.111538
vn 0.000000 1.000000 -0.000000
vn 0.000000 -1.000000 -0.000000
vn 0.000000 -1.000000 -0.000000
vn 0.000000 1.000000 0.000000
vn 0.000000 1.000000 0.000000
vn 0.818975 0.000000 0.573830
vn 0.818975 0.000000 0.573830
vn 0.818975 0.000000 0.573829
vn 0.818975 0.000000 0.573830
vn -0.818975 0.000000 0.573830
vn -0.818975 0.000000 0.573830
vn -0.818975 0.000000 0.573830
vn -0.818975 0.000000 0.573829
vn 0.000000 1.000000 0.000000
vn 0.000000 1.000000 0.000000
vn 0.000000 1.000000 0.000000
vn 0.000000 1.000000 -0.000000
vn 0.000000 1.000000 -0.000000
vn 0.000000 1.000000 -0.000000
vn 0.000000 -1.000000 0.000000
vn 0.000000 -1.000000 0.000000
vn 0.000000 -1.000000 0.000000
vn 0.000000 -1.000000 0.000000
vn 0.000000 -1.000000 0.000000
vn 0.000000 -1.000000 0.000000
vn 0.000000 -1.000000 0.000000
vn 0.000000 -1.000000 0.000000
vn 0.000000 -1.000000 0.000000
vn 0.000000 -1.000000 0.000000
vn 0.286529 0.000000 0.958072
vn 0.286529 0.000000 0.958072
vn 0.286529 0.000000 0.958072
vn 0.286529 0.000000 0.958072
vn 0.000000 1.000000 -0.000000
vn 0.000000 1.000000 -0.000000
vn 0.000000 1.000000 -0.000000
vn 0.000000 1.000000 -0.000000
vn -0.286529 0.000000 0.958072
vn -0.286529 0.000000 0.958072
vn -0.286529 0.000000 0.958072
vn -0.286529 0.000000 0.958072
vn 0.000000 -1.000000 0.000000
vn 0.000000 -1.000000 -0.000000
vn 0.000000 0.000000 -1.000000
vn 0.000000 0.000000 -1.000000
vn 0.000000 1.000000 0.000000
vn 0.000000 1.000000 0.000000
vn 0.000000 -1.000000 -0.000000
vn 0.000000 1.000000 0.000000
vn 0.000000 -1.000000 0.000000
vn 0.000000 1.000000 0.000000
vn -0.948896 0.000000 0.315589
vn -0.948896 0.000000 0.315589
vn 0.000000 -1.000000 -0.000000
vn 0.000000 -1.000000 0.000000
vn 0.000000 1.000000 0.000000
vn 0.000000 1.000000 0.000000
vn 0.000000 0.000000 -1.000000
vn 0.000000 0.000000 -1.000000
vn 0.000000 -1.000000 -0.000000
vn 0.000000 1.000000 0.000000
vn 0.000000 -1.000000 0.000000
vn 0.948896 0.000000 0.315589
vn 0.948896 0.000000 0.315589
vn 0.000000 1.000000 -0.000000
vn 0.000000 -1.000000 0.000000
vn 0.000000 -1.000000 -0.000000
vn 0.000000 0.000000 -1.000000
vn 0.000000 0.000000 -1.000000
vn 0.000000 1.000000 0.000000
vn 0.000000 1.000000 0.000000
vn 0.000000 -1.000000 0.000000
vn 0.000000 1.000000 0.000000
vn 0.000000 -1.000000 0.000000
vn 0.000000 1.000000 0.000000
vn -0.004256 0.000000 0.999991
vn -0.004256 0.000000 0.999991
vn -0.004256 0.000000 0.999991
vn -0.004256 0.000000 0.999991
vn 0.000000 -1.000000 0.000000
vn 0.000000 -1.000000 0.000000
vn 0.000000 1.000000 0.000000
vn 0.000000 1.000000 0.000000
vn 0.000000 0.000000 -1.000000
vn 0.000000 0.000000 -1.000000
vn 0.000000 -1.000000 0.000000
vn 0.000000 1.000000 -0.000000
vn 0.000000 -1.000000 0.000000
vn 0.004256 0.000000 0.999991
vn 0.004256 0.000000 0.999991
vn 0.004256 0.000000 0.999991
vn 0.004256 0.000000 0.999991
vn 0.000000 1.000000 -0.000000
s 1
g pCube1
f 1/1/1 2/2/2 14/14/3 13/13/4
f 2/2/2 3/3/5 15/15/6 14/14/3
f 3/3/5 4/4/7 16/16/8 15/15/6
f 4/4/7 5/5/9 17/17/10 16/16/8
s off
f 117/141/11 118/142/12 119/143/13 120/144/14
s 2
f 8/8/15 9/9/16 21/21/17 20/20/18
f 9/9/16 10/10/19 22/22/20 21/21/17
f 10/10/19 11/11/21 23/23/22 22/22/20
f 11/11/21 12/12/23 24/24/24 23/23/22
s 3
f 13/13/25 14/14/26 26/26/27 25/25/28
f 14/14/26 15/15/29 27/27/30 26/26/27
f 15/15/29 16/16/31 28/28/32 27/27/30
f 16/16/31 17/17/33 29/29/34 28/28/32
f 17/17/33 18/18/35 30/30/36 29/29/34
f 18/18/35 19/19/37 31/31/38 30/30/36
f 19/19/37 20/20/39 32/32/40 31/31/38
f 20/20/39 21/21/41 33/33/42 32/32/40
f 21/21/41 22/22/43 34/34/44 33/33/42
f 22/22/43 23/23/45 35/35/46 34/34/44
f 23/23/45 24/24/47 36/36/48 35/35/46
f 25/25/28 26/26/27 38/38/49 37/37/50
f 26/26/27 27/27/30 39/39/51 38/38/49
f 27/27/30 28/28/32 40/40/52 39/39/51
f 28/28/32 29/29/34 41/41/53 40/40/52
f 29/29/34 30/30/36 42/42/54 41/41/53
f 30/30/36 31/31/38 43/43/55 42/42/54
f 31/31/38 32/32/40 44/44/56 43/43/55
f 32/32/40 33/33/42 45/45/57 44/44/56
f 33/33/42 34/34/44 46/46/58 45/45/57
f 34/34/44 35/35/46 47/47/59 46/46/58
f 35/35/46 36/36/48 48/48/60 47/47/59
f 37/37/50 38/38/49 50/50/61 49/49/62
f 38/38/49 39/39/51 51/51/63 50/50/61
f 39/39/51 40/40/52 52/52/64 51/51/63
f 40/40/52 41/41/53 53/53/65 52/52/64
f 41/41/53 42/42/54 54/54/66 53/53/65
f 42/42/54 43/43/55 55/55/67 54/54/66
f 43/43/55 44/44/56 56/56/68 55/55/67
f 44/44/56 45/45/57 57/57/69 56/56/68
f 45/45/57 46/46/58 58/58/70 57/57/69
f 46/46/58 47/47/59 59/59/71 58/58/70
f 47/47/59 48/48/60 60/60/72 59/59/71
s 4
f 49/49/73 50/50/74 62/62/75 61/61/76
f 50/50/74 51/51/77 63/63/78 62/62/75
f 51/51/77 52/52/79 64/64/80 63/63/78
f 52/52/79 53/53/81 65/65/82 64/64/80
f 53/53/81 54/54/83 66/66/84 65/65/82
f 54/54/83 55/55/85 67/67/86 66/66/84
f 55/55/85 56/56/87 68/68/88 67/67/86
f 56/56/87 57/57/89 69/69/90 68/68/88
f 57/57/89 58/58/91 70/70/92 69/69/90
f 58/58/91 59/59/93 71/71/94 70/70/92
f 59/59/93 60/60/95 72/72/96 71/71/94
s 5
f 61/61/97 62/62/98 74/74/99 73/73/100
f 62/62/98 63/63/101 75/75/102 74/74/99
f 63/63/101 64/64/103 76/76/104 75/75/102
f 64/64/103 65/65/105 77/77/106 76/76/104
f 65/65/105 66/66/107 78/78/108 77/77/106
f 66/66/107 67/67/109 79/79/110 78/78/108
f 67/67/109 68/68/111 80/80/112 79/79/110
f 68/68/111 69/69/113 81/81/114 80/80/112
f 69/69/113 70/70/115 82/82/116 81/81/114
f 70/70/115 71/71/117 83/83/118 82/82/116
f 71/71/117 72/72/119 84/84/120 83/83/118
f 73/73/100 74/74/99 86/86/121 85/85/122
f 74/74/99 75/75/102 87/87/123 86/86/121
f 75/75/102 76/76/104 88/88/124 87/87/123
f 76/76/104 77/77/106 89/89/125 88/88/124
f 77/77/106 78/78/108 90/90/126 89/89/125
f 78/78/108 79/79/110 91/91/127 90/90/126
f 79/79/110 80/80/112 92/92/128 91/91/127
f 80/80/112 81/81/114 93/93/129 92/92/128
f 81/81/114 82/82/116 94/94/130 93/93/129
f 82/82/116 83/83/118 95/95/131 94/94/130
f 83/83/118 84/84/120 96/96/132 95/95/131
f 85/85/122 86/86/121 2/98/133 1/97/134
f 86/86/121 87/87/123 3/99/135 2/98/133
f 87/87/123 88/88/124 4/100/136 3/99/135
f 88/88/124 89/89/125 5/101/137 4/100/136
f 89/89/125 90/90/126 6/102/138 5/101/137
f 90/90/126 91/91/127 7/103/139 6/102/138
f 91/91/127 92/92/128 8/104/140 7/103/139
f 92/92/128 93/93/129 9/105/141 8/104/140
f 93/93/129 94/94/130 10/106/142 9/105/141
f 94/94/130 95/95/131 11/107/143 10/106/142
f 95/95/131 96/96/132 12/108/144 11/107/143
s 6
f 138/161/145 137/162/146 139/163/147 140/164/148
f 141/165/149 138/161/145 140/164/148 142/166/150
f 143/167/151 141/165/149 142/166/150 144/168/152
s 7
f 145/169/153 146/170/154 147/171/155 148/172/156
f 146/170/154 149/173/157 150/174/158 147/171/155
f 149/173/157 151/175/159 152/176/160 150/174/158
s 8
f 5/5/161 6/6/162 98/122/163 97/121/164
s 9
f 18/18/165 17/17/166 100/124/167 99/123/168
s off
f 17/17/169 5/5/170 97/121/171 100/124/172
s 8
f 6/6/173 7/7/174 101/125/175 98/122/163
s 9
f 19/19/176 18/18/177 99/123/168 102/126/178
s 8
f 7/7/179 8/8/180 103/127/181 101/125/175
s off
f 8/8/182 20/20/183 104/128/184 103/127/185
s 9
f 20/20/186 19/19/187 102/126/178 104/128/188
s 8
f 97/121/164 98/122/163 106/130/189 105/129/190
s 9
f 99/123/168 100/124/167 108/132/191 107/131/192
s off
f 100/124/193 97/121/194 105/129/195 108/132/196
s 8
f 98/122/163 101/125/175 109/133/197 106/130/189
s 9
f 102/126/178 99/123/168 107/131/192 110/134/198
s 8
f 101/125/175 103/127/181 111/135/199 109/133/197
s off
f 103/127/200 104/128/201 112/136/202 111/135/203
s 9
f 104/128/188 102/126/178 110/134/198 112/136/204
s 8
f 106/130/189 109/133/197 114/138/205 113/137/206
s 9
f 110/134/198 107/131/192 116/140/207 115/139/208
s off
f 111/135/209 112/136/210 115/139/211 114/138/212
f 108/132/213 105/129/214 113/137/215 116/140/216
f 107/131/217 108/132/218 116/140/219
f 112/136/220 110/134/221 115/139/222
f 106/130/223 113/137/224 105/129/225
f 111/135/226 114/138/227 109/133/228
f 113/137/229 114/138/230 118/142/231 117/141/232
f 114/138/233 115/139/234 119/143/235 118/142/236
f 115/139/237 116/140/238 120/144/239 119/143/240
f 116/140/241 113/137/242 117/141/243 120/144/244
s 5
f 84/110/120 72/109/119 121/146/245 122/145/246
s 4
f 72/109/96 60/112/95 123/147/247 121/146/248
s 3
f 60/112/72 48/113/60 124/148/249 123/147/250
s 5
f 96/111/132 84/110/120 122/145/246 125/149/251
s 3
f 48/113/60 36/114/48 126/150/252 124/148/249
s 5
f 12/12/144 96/111/132 125/149/251 127/151/253
s 3
f 36/114/48 24/24/47 128/152/254 126/150/252
s 2
f 24/24/24 12/12/23 127/151/255 128/152/256
s 5
f 61/115/97 73/116/100 130/154/257 129/153/258
s 3
f 37/119/50 49/118/62 132/156/259 131/155/260
s 4
f 49/118/73 61/115/76 129/153/261 132/156/262
s 5
f 73/116/100 85/117/122 133/157/263 130/154/257
s 3
f 25/120/28 37/119/50 131/155/260 134/158/264
s 5
f 85/117/122 1/1/134 135/159/265 133/157/263
s 1
f 1/1/1 13/13/4 136/160/266 135/159/267
s 3
f 13/13/25 25/120/28 134/158/264 136/160/268
s 5
f 122/145/246 121/146/245 137/162/269 138/161/270
s 4
f 121/146/248 123/147/247 139/163/271 137/162/272
s 3
f 123/147/250 124/148/249 140/164/273 139/163/274
s 5
f 125/149/251 122/145/246 138/161/270 141/165/275
s 3
f 124/148/249 126/150/252 142/166/276 140/164/273
s 5
f 127/151/253 125/149/251 141/165/275 143/167/277
s 3
f 126/150/252 128/152/254 144/168/278 142/166/276
s off
f 128/152/279 127/151/280 143/167/281 144/168/282
s 5
f 129/153/258 130/154/257 146/170/283 145/169/284
s 3
f 131/155/260 132/156/259 148/172/285 147/171/286
s 4
f 132/156/262 129/153/261 145/169/287 148/172/288
s 5
f 130/154/257 133/157/263 149/173/289 146/170/283
s 3
f 134/158/264 131/155/260 147/171/286 150/174/290
s 5
f 133/157/263 135/159/265 151/175/291 149/173/289
s off
f 135/159/292 136/160/293 152/176/294 151/175/295
s 3
f 136/160/268 134/158/264 150/174/290 152/176/296
