# This file uses centimeters as units for non-parametric coordinates.

v -5.535291 0.010530 0.658369
v 5.535291 0.010530 0.658369
v -3.874703 19.252075 0.658369
v 3.874703 19.252075 0.658369
v -3.874703 19.252075 -1.854973
v 3.874703 19.252075 -1.854973
v -5.535291 0.010530 -1.854973
v 5.535291 0.010530 -1.854973
v -4.374694 0.240480 0.658369
v 4.374694 0.240480 0.658369
v 3.062286 18.759918 0.658369
v -3.062286 18.759918 0.658369
v -3.062286 18.759918 -1.854973
v 3.062286 18.759918 -1.854973
v 4.374694 0.240480 -1.854973
v -4.374694 0.240480 -1.854973
v -4.374694 0.240480 -0.540114
v 4.374694 0.240480 -0.540114
v 3.062286 18.759918 -0.540114
v -3.062286 18.759918 -0.540114
v -3.062286 18.759918 -0.656490
v 3.062286 18.759918 -0.656490
v 4.374694 0.240480 -0.656490
v -4.374694 0.240480 -0.656490
v -3.710790 19.486732 0.658369
v 3.710790 19.486732 0.658369
v 3.710790 19.486732 -1.854973
v -3.710790 19.486732 -1.854973
v -3.343779 19.621865 0.658369
v 3.343779 19.621865 0.658369
v 3.343779 19.621865 -1.854973
v -3.343779 19.621865 -1.854973
vt 0.375000 0.000000
vt 0.625000 0.000000
vt 0.375000 0.250000
vt 0.625000 0.250000
vt 0.375000 0.500000
vt 0.625000 0.500000
vt 0.375000 0.750000
vt 0.625000 0.750000
vt 0.375000 1.000000
vt 0.625000 1.000000
vt 0.875000 0.000000
vt 0.875000 0.250000
vt 0.125000 0.000000
vt 0.125000 0.250000
vt 0.375000 0.000000
vt 0.625000 0.000000
vt 0.625000 0.250000
vt 0.375000 0.250000
vt 0.375000 0.500000
vt 0.625000 0.500000
vt 0.625000 0.750000
vt 0.375000 0.750000
vt 0.375000 0.000000
vt 0.625000 0.000000
vt 0.625000 0.250000
vt 0.375000 0.250000
vt 0.375000 0.500000
vt 0.625000 0.500000
vt 0.625000 0.750000
vt 0.375000 0.750000
vt 0.375000 0.250000
vt 0.625000 0.250000
vt 0.625000 0.500000
vt 0.375000 0.500000
vt 0.375000 0.250000
vt 0.625000 0.250000
vt 0.625000 0.500000
vt 0.375000 0.500000
vn 0.000000 0.000000 1.000000
vn 0.000000 0.000000 1.000000
vn 0.000000 0.000000 1.000000
vn 0.000000 0.000000 1.000000
vn 0.000000 1.000000 0.000000
vn 0.000000 1.000000 0.000000
vn 0.000000 1.000000 0.000000
vn 0.000000 1.000000 0.000000
vn 0.000000 0.000000 -1.000000
vn 0.000000 0.000000 -1.000000
vn 0.000000 0.000000 -1.000000
vn 0.000000 0.000000 -1.000000
vn 0.000000 -1.000000 0.000000
vn 0.000000 -1.000000 0.000000
vn 0.000000 -1.000000 0.000000
vn 0.000000 -1.000000 0.000000
vn 0.996297 0.085983 0.000000
vn 0.996297 0.085983 0.000000
vn 0.996297 0.085983 0.000000
vn 0.996297 0.085983 0.000000
vn -0.996297 0.085983 0.000000
vn -0.996297 0.085983 0.000000
vn -0.996297 0.085983 0.000000
vn -0.996297 0.085983 0.000000
vn 0.000000 0.000000 1.000000
vn 0.000000 0.000000 1.000000
vn 0.000000 0.000000 1.000000
vn 0.000000 0.000000 1.000000
vn 0.000000 0.000000 1.000000
vn 0.000000 0.000000 1.000000
vn 0.000000 0.000000 1.000000
vn 0.000000 0.000000 1.000000
vn 0.000000 0.000000 1.000000
vn 0.000000 0.000000 1.000000
vn 0.000000 0.000000 1.000000
vn 0.000000 0.000000 1.000000
vn -0.000000 0.000000 1.000000
vn -0.000000 0.000000 1.000000
vn -0.000000 0.000000 1.000000
vn -0.000000 0.000000 1.000000
vn 0.000000 0.000000 -1.000000
vn 0.000000 0.000000 -1.000000
vn 0.000000 0.000000 -1.000000
vn 0.000000 0.000000 -1.000000
vn -0.000000 0.000000 -1.000000
vn -0.000000 0.000000 -1.000000
vn -0.000000 0.000000 -1.000000
vn -0.000000 0.000000 -1.000000
vn 0.000000 0.000000 -1.000000
vn 0.000000 0.000000 -1.000000
vn 0.000000 0.000000 -1.000000
vn 0.000000 0.000000 -1.000000
vn 0.000000 0.000000 -1.000000
vn 0.000000 0.000000 -1.000000
vn 0.000000 0.000000 -1.000000
vn 0.000000 0.000000 -1.000000
vn 0.000000 1.000000 0.000000
vn 0.000000 1.000000 0.000000
vn 0.000000 1.000000 0.000000
vn 0.000000 1.000000 0.000000
vn -0.997498 -0.070689 0.000000
vn -0.997498 -0.070689 0.000000
vn -0.997498 -0.070689 0.000000
vn -0.997498 -0.070689 0.000000
vn 0.000000 -1.000000 0.000000
vn 0.000000 -1.000000 0.000000
vn 0.000000 -1.000000 0.000000
vn 0.000000 -1.000000 0.000000
vn 0.997498 -0.070689 0.000000
vn 0.997498 -0.070689 0.000000
vn 0.997498 -0.070689 0.000000
vn 0.997498 -0.070689 0.000000
vn 0.000000 -1.000000 0.000000
vn 0.000000 -1.000000 0.000000
vn 0.000000 -1.000000 0.000000
vn 0.000000 -1.000000 0.000000
vn -0.997498 -0.070689 0.000000
vn -0.997498 -0.070689 0.000000
vn -0.997498 -0.070689 0.000000
vn -0.997498 -0.070689 0.000000
vn 0.000000 1.000000 0.000000
vn 0.000000 1.000000 0.000000
vn 0.000000 1.000000 0.000000
vn 0.000000 1.000000 0.000000
vn 0.997498 -0.070689 0.000000
vn 0.997498 -0.070689 0.000000
vn 0.997498 -0.070689 0.000000
vn 0.997498 -0.070689 0.000000
vn 0.000000 0.000000 1.000000
vn 0.000000 0.000000 1.000000
vn 0.819801 0.572648 0.000000
vn 0.819801 0.572648 0.000000
vn 0.819801 0.572648 0.000000
vn 0.819801 0.572648 0.000000
vn 0.000000 0.000000 -1.000000
vn 0.000000 0.000000 -1.000000
vn -0.819801 0.572648 0.000000
vn -0.819801 0.572648 0.000000
vn -0.819801 0.572648 0.000000
vn -0.819801 0.572648 0.000000
vn 0.000000 0.000000 1.000000
vn 0.000000 0.000000 1.000000
vn 0.000000 0.000000 1.000000
vn 0.000000 0.000000 1.000000
vn 0.345521 0.938411 0.000000
vn 0.345521 0.938411 0.000000
vn 0.345521 0.938411 0.000000
vn 0.345521 0.938411 0.000000
vn 0.000000 0.000000 -1.000000
vn 0.000000 0.000000 -1.000000
vn 0.000000 0.000000 -1.000000
vn 0.000000 0.000000 -1.000000
vn -0.345521 0.938411 0.000000
vn -0.345521 0.938411 0.000000
vn -0.345521 0.938411 0.000000
vn -0.345521 0.938411 0.000000
s off
g pCube1
f 17/23/1 18/24/2 19/25/3 20/26/4
f 29/35/5 30/36/6 31/37/7 32/38/8
f 21/27/9 22/28/10 23/29/11 24/30/12
f 7/7/13 8/8/14 2/10/15 1/9/16
f 2/2/17 8/11/18 6/12/19 4/4/20
f 7/13/21 1/1/22 3/3/23 5/14/24
f 1/1/25 2/2/26 10/16/27 9/15/28
f 2/2/29 4/4/30 11/17/31 10/16/32
s 1
f 4/4/33 3/3/34 12/18/35 11/17/36
s off
f 3/3/37 1/1/38 9/15/39 12/18/40
s 2
f 5/5/41 6/6/42 14/20/43 13/19/44
s off
f 6/6/45 8/8/46 15/21/47 14/20/48
f 8/8/49 7/7/50 16/22/51 15/21/52
f 7/7/53 5/5/54 13/19/55 16/22/56
f 9/15/57 10/16/58 18/24/59 17/23/60
f 10/16/61 11/17/62 19/25/63 18/24/64
f 11/17/65 12/18/66 20/26/67 19/25/68
f 12/18/69 9/15/70 17/23/71 20/26/72
f 13/19/73 14/20/74 22/28/75 21/27/76
f 14/20/77 15/21/78 23/29/79 22/28/80
f 15/21/81 16/22/82 24/30/83 23/29/84
f 16/22/85 13/19/86 21/27/87 24/30/88
s 1
f 3/3/34 4/4/33 26/32/89 25/31/90
s off
f 4/4/91 6/6/92 27/33/93 26/32/94
s 2
f 6/6/42 5/5/41 28/34/95 27/33/96
s off
f 5/5/97 3/3/98 25/31/99 28/34/100
f 25/31/101 26/32/102 30/36/103 29/35/104
f 26/32/105 27/33/106 31/37/107 30/36/108
f 27/33/109 28/34/110 32/38/111 31/37/112
f 28/34/113 25/31/114 29/35/115 32/38/116
v -4.715085 0.123432 -0.199078
v -0.152666 0.123432 -0.199078
v 0.152666 0.123432 -0.199078
v 4.715085 0.123432 -0.199078
v -3.352947 19.204791 -0.199078
v -0.152666 19.204791 -0.199078
v 0.152666 19.204791 -0.199078
v 3.352947 19.204791 -0.199078
v -3.352947 19.204791 -1.199078
v -0.152666 19.204791 -1.199078
v 0.152666 19.204791 -1.199078
v 3.352947 19.204791 -1.199078
v -4.715085 0.123432 -1.199078
v -0.152666 0.123432 -1.199078
v 0.152666 0.123432 -1.199078
v 4.715085 0.123432 -1.199078
v -0.152666 0.123432 -0.505399
v 0.152666 0.123432 -0.505399
v 0.152666 19.204791 -0.505399
v -0.152666 19.204791 -0.505399
v 0.152666 19.204791 -0.892758
v -0.152666 19.204791 -0.892758
v 0.152666 0.123432 -0.892758
v -0.152666 0.123432 -0.892758
vt 0.375000 0.000000
vt 0.458333 0.000000
vt 0.541667 0.000000
vt 0.625000 0.000000
vt 0.375000 0.250000
vt 0.458333 0.250000
vt 0.541667 0.250000
vt 0.625000 0.250000
vt 0.375000 0.500000
vt 0.458333 0.500000
vt 0.541667 0.500000
vt 0.625000 0.500000
vt 0.375000 0.750000
vt 0.458333 0.750000
vt 0.541667 0.750000
vt 0.625000 0.750000
vt 0.375000 1.000000
vt 0.458333 1.000000
vt 0.541667 1.000000
vt 0.625000 1.000000
vt 0.875000 0.000000
vt 0.875000 0.250000
vt 0.125000 0.000000
vt 0.125000 0.250000
vt 0.541667 0.000000
vt 0.541667 0.250000
vt 0.458333 0.250000
vt 0.458333 0.000000
vt 0.541667 0.500000
vt 0.458333 0.500000
vt 0.541667 0.750000
vt 0.458333 0.750000
vt 0.541667 1.000000
vt 0.458333 1.000000
vn 0.000000 0.000000 1.000000
vn 0.000000 0.000000 1.000000
vn 0.000000 0.000000 1.000000
vn 0.000000 0.000000 1.000000
vn 0.000000 0.000000 1.000000
vn 0.000000 0.000000 1.000000
vn 0.000000 0.000000 1.000000
vn 0.000000 0.000000 1.000000
vn 0.000000 0.000000 1.000000
vn 0.000000 0.000000 1.000000
vn 0.000000 0.000000 1.000000
vn 0.000000 0.000000 1.000000
vn 0.000000 1.000000 0.000000
vn 0.000000 1.000000 0.000000
vn 0.000000 1.000000 0.000000
vn 0.000000 1.000000 0.000000
vn 0.000000 1.000000 0.000000
vn 0.000000 1.000000 0.000000
vn 0.000000 1.000000 0.000000
vn 0.000000 1.000000 0.000000
vn 0.000000 1.000000 0.000000
vn 0.000000 1.000000 0.000000
vn 0.000000 1.000000 0.000000
vn 0.000000 1.000000 0.000000
vn 0.000000 0.000000 -1.000000
vn 0.000000 0.000000 -1.000000
vn 0.000000 0.000000 -1.000000
vn 0.000000 0.000000 -1.000000
vn 0.000000 0.000000 -1.000000
vn 0.000000 0.000000 -1.000000
vn 0.000000 0.000000 -1.000000
vn 0.000000 0.000000 -1.000000
vn 0.000000 0.000000 -1.000000
vn 0.000000 0.000000 -1.000000
vn 0.000000 0.000000 -1.000000
vn 0.000000 0.000000 -1.000000
vn 0.000000 -1.000000 0.000000
vn 0.000000 -1.000000 0.000000
vn 0.000000 -1.000000 0.000000
vn 0.000000 -1.000000 0.000000
vn 0.000000 -1.000000 0.000000
vn 0.000000 -1.000000 0.000000
vn 0.000000 -1.000000 0.000000
vn 0.000000 -1.000000 0.000000
vn 0.000000 -1.000000 0.000000
vn 0.000000 -1.000000 0.000000
vn 0.000000 -1.000000 0.000000
vn 0.000000 -1.000000 0.000000
vn 0.997462 0.071205 0.000000
vn 0.997462 0.071205 0.000000
vn 0.997462 0.071205 0.000000
vn 0.997462 0.071205 0.000000
vn -0.997462 0.071205 0.000000
vn -0.997462 0.071205 0.000000
vn -0.997462 0.071205 0.000000
vn -0.997462 0.071205 0.000000
vn -1.000000 -0.000000 0.000000
vn -1.000000 -0.000000 0.000000
vn -1.000000 -0.000000 0.000000
vn -1.000000 -0.000000 0.000000
vn 1.000000 -0.000000 0.000000
vn 1.000000 -0.000000 0.000000
vn 1.000000 -0.000000 0.000000
vn 1.000000 -0.000000 0.000000
vn 0.000000 0.000000 0.000000
vn 0.000000 0.000000 0.000000
vn 0.000000 0.000000 0.000000
vn 0.000000 0.000000 0.000000
vn 0.000000 0.000000 0.000000
vn 0.000000 0.000000 0.000000
vn 0.000000 0.000000 0.000000
vn 0.000000 0.000000 0.000000
vn -1.000000 -0.000000 0.000000
vn -1.000000 -0.000000 0.000000
vn -1.000000 -0.000000 0.000000
vn -1.000000 -0.000000 0.000000
vn 1.000000 -0.000000 0.000000
vn 1.000000 -0.000000 0.000000
vn 1.000000 -0.000000 0.000000
vn 1.000000 -0.000000 0.000000
vn 0.000000 0.000000 0.000000
vn 0.000000 0.000000 0.000000
vn 0.000000 0.000000 0.000000
vn 0.000000 0.000000 0.000000
vn 0.000000 -0.000000 0.000000
vn 0.000000 -0.000000 0.000000
vn 0.000000 -1.000000 0.000000
vn 0.000000 -1.000000 0.000000
s off
g pCube2
f 33/39/117 34/40/118 38/44/119 37/43/120
f 49/66/121 50/63/122 51/64/123 52/65/124
f 35/41/125 36/42/126 40/46/127 39/45/128
f 37/43/129 38/44/130 42/48/131 41/47/132
f 52/65/133 51/64/134 53/67/135 54/68/136
f 39/45/137 40/46/138 44/50/139 43/49/140
f 41/47/141 42/48/142 46/52/143 45/51/144
f 54/68/145 53/67/146 55/69/147 56/70/148
f 43/49/149 44/50/150 48/54/151 47/53/152
f 45/51/153 46/52/154 34/56/155 33/55/156
f 56/70/157 55/69/158 50/71/159 49/72/160
f 47/53/161 48/54/162 36/58/163 35/57/164
f 36/42/165 48/59/166 44/60/167 40/46/168
f 45/61/169 33/39/170 37/43/171 41/62/172
f 35/41/173 39/45/174 51/64/175 50/63/176
f 38/44/177 34/40/178 49/66/179 52/65/180
f 39/45/181 43/49/182 53/67/183 51/64/184
f 42/48/185 38/44/186 52/65/187 54/68/188
f 43/49/189 47/53/190 55/69/191 53/67/192
f 46/52/193 42/48/194 54/68/195 56/70/196
f 47/53/197 35/57/198 50/71/199 55/69/200
f 34/56/201 46/52/202 56/70/203 49/72/204
